<svg width="247" height="247" viewBox="0 0 247 247" fill="none" xmlns="http://www.w3.org/2000/svg">
<path d="M191.185 113.108C192.132 113.708 192.312 114.708 191.599 115.353L124.006 176.126C123.575 176.444 123.057 176.622 122.521 176.635C121.986 176.648 121.459 176.497 121.013 176.2C89.4006 155.804 63.1252 128.142 44.38 95.523C44.24 95.283 47.185 74.776 47.185 74.776C47.3345 73.8453 47.7987 72.9939 48.5 72.364L106.257 20.434C106.97 19.793 107.957 20.085 108.446 21.083C127.341 58.5771 155.904 90.3462 191.185 113.108Z" fill="#EEAAA2" stroke="#46001E" stroke-width="0.5" stroke-linecap="round" stroke-linejoin="round"/>
<path d="M191.185 113.108C192.132 113.708 192.312 114.708 191.599 115.353L124.006 176.126C123.575 176.444 123.057 176.622 122.521 176.635C121.986 176.648 121.459 176.497 121.013 176.2C89.4006 155.804 63.1253 128.142 44.38 95.523L43.965 94.809L47.185 74.776C47.3345 73.8453 47.7987 72.9939 48.5 72.364L106.257 20.434C106.97 19.793 107.957 20.085 108.446 21.083C127.341 58.5771 155.904 90.3462 191.185 113.108Z" fill="#EEAAA2" stroke="#46001E" stroke-width="0.5" stroke-linecap="round" stroke-linejoin="round"/>
<path d="M102.666 44.0857C105.171 43.2996 106.459 40.2945 105.543 37.3736C104.626 34.4527 101.852 32.7221 99.3471 33.5083C96.842 34.2944 95.5542 37.2995 96.4708 40.2204C97.3874 43.1412 100.161 44.8718 102.666 44.0857Z" fill="#EBF5FA" stroke="#46001E" stroke-width="0.5" stroke-miterlimit="10"/>
<path d="M114.094 70.3847C120.031 68.5215 123.084 61.3988 120.911 54.4757C118.739 47.5527 112.164 43.4509 106.227 45.3141C100.289 47.1774 97.2366 54.3001 99.4091 61.2232C101.582 68.1462 108.156 72.248 114.094 70.3847Z" fill="#EBF5FA" stroke="#46001E" stroke-width="0.5" stroke-miterlimit="10"/>
<path d="M124.5 187.328L207.769 150.89C208.648 150.505 208.785 149.495 208.084 148.626C181.75 115.926 164.623 76.7872 158.474 35.254C158.311 34.154 157.474 33.564 156.597 33.954L73.325 70.387C72.8572 70.6495 72.4811 71.049 72.2472 71.5317C72.0134 72.0145 71.933 72.5572 72.017 73.087C78.1668 114.62 95.2932 153.758 121.627 186.459C121.96 186.88 122.414 187.189 122.927 187.344C123.441 187.499 123.99 187.494 124.5 187.328Z" fill="#007470" stroke="#46001E" stroke-width="0.5" stroke-linecap="round" stroke-linejoin="round"/>
<path d="M124.5 187.328L207.769 150.89C208.648 150.505 208.785 149.495 208.084 148.626C181.75 115.926 164.623 76.7872 158.474 35.254C158.311 34.154 157.474 33.564 156.597 33.954L73.325 70.387C72.8572 70.6495 72.4811 71.049 72.2472 71.5317C72.0134 72.0145 71.933 72.5572 72.017 73.087C78.1668 114.62 95.2932 153.758 121.627 186.459C121.96 186.88 122.414 187.189 122.927 187.344C123.441 187.499 123.99 187.494 124.5 187.328Z" fill="#007470" stroke="#46001E" stroke-width="0.5" stroke-linecap="round" stroke-linejoin="round"/>
<path d="M113.181 205.647L189.112 172.421C189.912 172.07 190.038 171.149 189.399 170.357C165.386 140.538 149.769 104.849 144.161 66.976C144.013 65.969 143.252 65.435 142.45 65.786L66.519 99.012C66.0928 99.2514 65.7501 99.6156 65.537 100.056C65.3239 100.495 65.2506 100.99 65.327 101.473C70.9346 139.345 86.5513 175.034 110.564 204.853C110.867 205.236 111.281 205.517 111.748 205.659C112.216 205.801 112.716 205.797 113.181 205.647Z" fill="#EBF5FA" stroke="#46001E" stroke-width="0.5" stroke-miterlimit="10"/>
<path d="M160.455 161.973L105.411 186.06C105.067 186.184 104.755 186.383 104.499 186.643C104.242 186.903 104.047 187.217 103.927 187.562C103.808 187.908 103.768 188.275 103.81 188.638C103.851 189.001 103.974 189.351 104.168 189.66L105.35 191.312C105.712 191.77 106.22 192.092 106.789 192.223C107.359 192.354 107.956 192.288 108.482 192.034L163.527 167.947C163.871 167.823 164.182 167.624 164.439 167.364C164.696 167.104 164.891 166.79 165.01 166.444C165.129 166.099 165.169 165.731 165.128 165.368C165.086 165.005 164.963 164.656 164.769 164.347L163.587 162.695C163.225 162.237 162.717 161.915 162.148 161.784C161.578 161.653 160.981 161.719 160.455 161.973Z" fill="#0A003C" stroke="#46001E" stroke-width="0.599" stroke-miterlimit="10"/>
<path d="M155.28 153.472L100.5 177.444C100.158 177.568 99.8477 177.768 99.5926 178.027C99.3374 178.287 99.1437 178.601 99.0257 178.945C98.9076 179.29 98.8682 179.656 98.9103 180.018C98.9524 180.379 99.075 180.727 99.269 181.035L100.449 182.688C100.809 183.146 101.314 183.468 101.881 183.6C102.449 183.732 103.044 183.667 103.569 183.414L158.352 159.442C158.694 159.318 159.004 159.118 159.259 158.858C159.514 158.598 159.707 158.285 159.825 157.941C159.943 157.596 159.983 157.23 159.941 156.868C159.899 156.507 159.777 156.159 159.583 155.851L158.4 154.2C158.041 153.742 157.535 153.42 156.968 153.287C156.401 153.155 155.805 153.22 155.28 153.472Z" fill="#0A003C" stroke="#46001E" stroke-width="0.598" stroke-miterlimit="10"/>
<path d="M146.614 135.242L97.214 156.857C95.86 157.449 95.158 158.622 95.754 159.297L96.57 160.22C96.9428 160.485 97.3842 160.636 97.841 160.655C98.2978 160.674 98.7503 160.561 99.144 160.328L148.544 138.713C149.898 138.121 150.6 136.948 150.004 136.273L149.188 135.35C148.815 135.085 148.374 134.934 147.917 134.915C147.46 134.896 147.008 135.01 146.614 135.242Z" fill="#0A003C" stroke="#46001E" stroke-width="0.436" stroke-miterlimit="10"/>
<path d="M141.692 117.243L81.767 143.559C75.599 129.85 71.855 116.159 71.52 102.509L131.445 76.194C132.838 90.59 135.99 104.366 141.692 117.243Z" fill="#0A003C" stroke="#46001E" stroke-width="0.575" stroke-miterlimit="10"/>
<path d="M126.236 176.544L214.978 156.89C215.915 156.682 216.245 155.717 215.725 154.729C196.208 117.555 186.97 75.8445 188.965 33.9061C189.019 32.7911 188.314 32.0551 187.376 32.2631L98.6339 51.9171C98.1247 52.0845 97.6789 52.4037 97.3562 52.8318C97.0336 53.2599 96.8496 53.7764 96.8289 54.3121C94.8349 96.2504 104.073 137.961 123.589 175.135C123.834 175.612 124.218 176.002 124.692 176.254C125.165 176.506 125.704 176.607 126.236 176.544Z" fill="#FFC300" stroke="#46001E" stroke-width="0.5" stroke-linecap="round" stroke-linejoin="round"/>
<path d="M126.156 176.53L214.9 156.875C215.837 156.668 216.167 155.703 215.646 154.715C196.13 117.541 186.892 75.8304 188.886 33.892C188.941 32.776 188.235 32.041 187.297 32.248L98.553 51.9C98.0435 52.068 97.5978 52.3882 97.276 52.8173C96.9541 53.2464 96.7716 53.7639 96.753 54.3C94.7586 96.2383 103.996 137.949 123.512 175.123C123.757 175.599 124.141 175.989 124.614 176.24C125.086 176.491 125.624 176.593 126.156 176.53V176.53Z" stroke="#46001E" stroke-width="0.42" stroke-miterlimit="10"/>
<path d="M198.175 146.331C197.248 147.348 196.042 148.07 194.708 148.409C193.375 148.748 191.971 148.689 190.67 148.238C189.37 147.788 188.23 146.966 187.392 145.875C186.554 144.783 186.054 143.47 185.954 142.097C185.692 138.487 188.179 135.235 188.598 131.641C189.098 127.318 186.437 123.076 182.807 120.675C179.049 118.19 174.032 117.403 169.941 119.291C166.62 120.825 164.271 123.845 162.055 126.755L155.973 134.743C152.541 139.25 148.873 143.943 143.656 146.157C135.293 149.7 124.756 145.104 120.669 136.994C116.582 128.884 118.607 118.454 124.583 111.616C131.509 103.689 142.273 100.635 151.888 96.351C161.009 92.286 169.648 86.694 175.875 78.888C182.102 71.082 185.71 60.862 184.198 50.988C183.457 46.147 180.941 40.962 176.24 39.588C173.358 38.748 170.24 39.536 167.502 40.761C153.737 46.912 146.263 63.18 132.092 68.325C127.73 69.8507 123.045 70.2147 118.5 69.3814C113.954 68.548 109.703 66.5459 106.166 63.572" stroke="#0A003C" stroke-linecap="round" stroke-linejoin="round"/>
<path d="M199.345 148.843C200.617 148.843 201.649 148.042 201.649 147.055C201.649 146.067 200.617 145.267 199.345 145.267C198.073 145.267 197.041 146.067 197.041 147.055C197.041 148.042 198.073 148.843 199.345 148.843Z" fill="#0A003C" stroke="#46001E" stroke-width="0.521" stroke-miterlimit="10"/>
<path d="M153.408 140.329C154.68 140.329 155.712 139.529 155.712 138.541C155.712 137.554 154.68 136.753 153.408 136.753C152.136 136.753 151.104 137.554 151.104 138.541C151.104 139.529 152.136 140.329 153.408 140.329Z" fill="#0A003C" stroke="#46001E" stroke-width="0.521" stroke-miterlimit="10"/>
<path d="M106.491 67.008C107.961 66.8688 109.007 65.2209 108.827 63.3273C108.648 61.4337 107.311 60.0115 105.842 60.1507C104.372 60.29 103.326 61.9379 103.505 63.8315C103.685 65.7251 105.021 67.1473 106.491 67.008Z" fill="#0A003C" stroke="#46001E" stroke-width="0.361" stroke-miterlimit="10"/>
<path d="M157.627 96.9019C159.274 95.9509 160.011 94.1435 159.273 92.8651C158.534 91.5866 156.601 91.3212 154.954 92.2723C153.306 93.2233 152.569 95.0306 153.308 96.3091C154.046 97.5875 155.979 97.8529 157.627 96.9019Z" fill="#0A003C" stroke="#46001E" stroke-width="0.361" stroke-miterlimit="10"/>
<path d="M56 80.714C50 81.06 45.893 83.892 43.965 94.814C43.917 95.087 47.185 74.781 47.185 74.781C47.3335 73.8485 47.7977 72.9952 48.5 72.364L56 80.714Z" fill="#0A003C" stroke="#46001E" stroke-width="0.575" stroke-miterlimit="10"/>
<path d="M182.096 99.203L184.631 100.818L181.39 103.876L178.854 102.26L176.667 104.323L172.911 101.929L175.099 99.866L172.563 98.25L175.802 95.193L178.338 96.809L180.525 94.746L184.283 97.14L182.096 99.203Z" fill="#0A003C" stroke="#46001E" stroke-width="0.18" stroke-miterlimit="10"/>
<path d="M185.954 142.1C182.982 144.149 181.896 150.489 178.371 151.268C174.846 152.047 170.797 151.39 168.331 148.753C166.007 146.268 165.517 142.616 165.351 139.217C165.023 132.483 166.551 135.191 165.512 128.53C164.473 121.869 132.503 127.563 126.968 123.714C120.859 119.465 140.616 97.614 133.63 100.173C126.644 102.732 120.686 107.44 114.86 112.068C113.26 113.336 111.56 114.768 111.169 116.768C111.049 117.666 111.139 118.58 111.43 119.437C111.722 120.295 112.208 121.074 112.85 121.713C114.145 122.979 115.629 124.034 117.25 124.841C120.633 116.63 120.557 107.441 119.971 98.579C119.385 89.717 118.347 80.745 119.971 72.014C120.895 67.058 123.185 61.72 127.895 59.921C131.789 58.434 136.295 59.883 139.589 62.434C142.883 64.985 145.264 68.504 147.795 71.816C156.154 82.7414 166.625 91.875 178.584 98.674" stroke="#0A003C" stroke-linecap="round" stroke-linejoin="round"/>
<path d="M104.535 157.495L81.6695 193.411C81.1502 194.227 80.3281 194.803 79.3841 195.012C78.4401 195.222 77.4515 195.048 76.6358 194.529L75.8589 194.034C75.0432 193.515 74.4672 192.693 74.2576 191.749C74.048 190.805 74.222 189.816 74.7413 189L97.6066 153.084L104.535 157.495Z" fill="#0A003C" stroke="#46001E" stroke-width="0.5" stroke-miterlimit="10"/>
<path d="M100.137 161.119L95.9745 158.47C94.4837 157.521 92.5057 157.96 91.5566 159.45C90.6075 160.941 91.0467 162.919 92.5375 163.868L96.6996 166.518C98.1905 167.467 100.168 167.028 101.118 165.537C102.067 164.046 101.628 162.068 100.137 161.119Z" fill="#0A003C" stroke="#46001E" stroke-width="0.5" stroke-miterlimit="10"/>
<path d="M116.415 163.796C134.144 163.796 148.517 149.423 148.517 131.694C148.517 113.965 134.144 99.592 116.415 99.592C98.6855 99.592 84.313 113.965 84.313 131.694C84.313 149.423 98.6855 163.796 116.415 163.796Z" fill="#EEAAA2" stroke="#46001E" stroke-width="0.5" stroke-linecap="round" stroke-linejoin="round"/>
<path d="M116.415 161.416C132.83 161.416 146.137 148.109 146.137 131.694C146.137 115.279 132.83 101.972 116.415 101.972C100 101.972 86.693 115.279 86.693 131.694C86.693 148.109 100 161.416 116.415 161.416Z" fill="#0A003C" stroke="#46001E" stroke-width="0.5" stroke-miterlimit="10"/>
<path d="M116.415 157.629C130.738 157.629 142.35 146.018 142.35 131.694C142.35 117.371 130.738 105.759 116.415 105.759C102.091 105.759 90.48 117.371 90.48 131.694C90.48 146.018 102.091 157.629 116.415 157.629Z" fill="#FFC300" stroke="#46001E" stroke-width="0.5" stroke-linecap="round" stroke-linejoin="round"/>
<path d="M80.5809 191.838L76.4188 189.189C74.9279 188.239 72.95 188.679 72.0009 190.169C71.0517 191.66 71.4909 193.638 72.9817 194.587L77.1439 197.237C78.6347 198.186 80.6127 197.747 81.5618 196.256C82.5109 194.765 82.0717 192.787 80.5809 191.838Z" fill="#0A003C" stroke="#46001E" stroke-width="0.5" stroke-miterlimit="10"/>
<path d="M84.7565 185.278L80.5944 182.629C79.1036 181.679 77.1256 182.119 76.1765 183.609C75.2274 185.1 75.6666 187.078 77.1574 188.027L81.3195 190.677C82.8104 191.626 84.7883 191.187 85.7374 189.696C86.6865 188.205 86.2474 186.227 84.7565 185.278Z" fill="#0A003C" stroke="#46001E" stroke-width="0.5" stroke-miterlimit="10"/>
<path d="M89.0875 178.475L84.9253 175.826C83.4345 174.877 81.4565 175.316 80.5074 176.807C79.5583 178.297 79.9975 180.275 81.4883 181.224L85.6504 183.874C87.1413 184.823 89.1192 184.384 90.0683 182.893C91.0175 181.402 90.5783 179.425 89.0875 178.475Z" fill="#0A003C" stroke="#46001E" stroke-width="0.5" stroke-miterlimit="10"/>
<path d="M72.869 203.555C75.1549 203.555 77.008 201.702 77.008 199.416C77.008 197.13 75.1549 195.277 72.869 195.277C70.5831 195.277 68.73 197.13 68.73 199.416C68.73 201.702 70.5831 203.555 72.869 203.555Z" fill="#0A003C" stroke="#46001E" stroke-width="0.5" stroke-miterlimit="10"/>
<path d="M120.607 157.392C116.748 158.271 106.891 155.986 103.297 153.698C100.424 151.869 97.9398 149.492 95.9857 146.702C94.0316 143.913 92.6462 140.766 91.9084 137.441C91.1706 134.116 91.095 130.679 91.6859 127.325C92.2767 123.97 93.5225 120.766 95.352 117.893C97.029 115.252 100.227 110.899 104.868 108.854C107.3 124.811 114.165 142.587 120.607 157.392Z" fill="#FFC300" stroke="#46001E" stroke-width="0.5" stroke-miterlimit="10"/>
<path d="M119.852 157.4C115.993 158.279 106.136 155.994 102.541 153.706C96.7398 150.011 92.6441 144.162 91.1548 137.448C89.6656 130.733 90.9049 123.701 94.5999 117.9C96.2769 115.259 99.4759 110.906 104.117 108.861C106.54 124.816 113.41 142.592 119.852 157.4Z" fill="#EBF5FA" stroke="#46001E" stroke-width="0.5" stroke-miterlimit="10"/>
</svg>
